M48
;DRILL file {KiCad (5.0.0)} date 10/02/18 20:51:20
;FORMAT={-:-/ absolute / metric / decimal}
FMAT,2
METRIC,TZ
T1C0.762
T2C0.850
T3C1.400
T4C3.200
%
G90
G05
M71
T1
X4.565Y41.021
X4.565Y38.481
X4.565Y35.941
X4.565Y33.401
X4.565Y30.861
X4.565Y28.321
X4.565Y25.781
X4.565Y23.241
X4.565Y20.701
X4.565Y18.161
X4.565Y15.621
X4.565Y13.081
X5.715Y10.541
X8.255Y10.541
X10.795Y10.541
X12.065Y41.021
X13.335Y10.541
X14.605Y41.021
X15.875Y10.541
X17.065Y24.521
X17.145Y41.021
X17.145Y21.971
X18.415Y10.541
X19.685Y41.021
X19.685Y38.481
X19.685Y35.941
X19.685Y33.401
X19.685Y30.861
X19.685Y28.321
X19.685Y25.781
X19.685Y23.241
X19.685Y20.701
X19.685Y18.161
X19.685Y15.621
X19.685Y13.081
T2
X9.596Y35.388
X9.596Y32.848
X9.596Y30.308
X9.596Y27.768
T3
X45.847Y16.256
X45.847Y11.256
T4
X9.846Y46.018
X9.846Y17.018
X36.846Y46.018
X36.846Y17.018
T0
M30
